<svg xmlns="http://www.w3.org/2000/svg" id="Layer_1" viewBox="0 0 88.6 62"><defs><style>      .st0 {        fill: #fff;      }    </style></defs><g><path class="st0" d="M63.7,44v-14.7c-.1,0-.3-.1-.5-.1-1.9-.1-4.2,0-6.1,0-.2,0-1.1,0-1.2,0v14.6s-.1.2-.1.2c0,0-.1,0-.2,0h-3.6c-.1,0,0-.3,0-.3,0-.9,0-1.9,0-2.9,0-6.6,0-13.2,0-19.8.2-4.3,3.8-7.6,8.1-7.4,3.9.2,7.1,3.4,7.3,7.3-.2,7.3.2,14.8,0,22.1,0,.2,0,.9,0,1h-3.7ZM56,25.2c1.4,0,2.8,0,4.2,0s1.9,0,2.8,0,.7,0,.7,0c-.1-1.3,0-2.6,0-3.9-.2-2.8-3-4.5-5.6-3.3s-2.2,2-2.2,3.7,0,2.2,0,3.1,0,.3,0,.4Z"></path><path class="st0" d="M6.6,29.2c0,0,0,.2,0,.3,0,1.5,0,3.1,0,4.6s-.2,3,.2,4,1.5,2,2.5,2.3c2.4.7,4.8-1.2,5-3.6.2,0,.3,0,.5,0,1.1,0,2.1,0,3.2,0h0c0,2-.8,3.9-2.2,5.3-4.5,4.7-12.1,2-13.2-4.2-.1-5.6,0-11.3,0-16.9.4-5.3,5.2-8.6,10.3-6.9s3.5,2.2,4.3,3.9.8,2.9.7,4.6c0,2.2,0,4.4,0,6.5H6.6ZM6.5,20.8v4.4s0,0,.1,0c.5,0,1.3-.1,1.9,0h5.8c0-.2,0-.3,0-.4,0-2.5.7-5.3-1.9-6.8-1.2-.7-2.4-.7-3.6-.2s-2.1,1.7-2.2,2.8Z"></path><path class="st0" d="M45.7,29.2h-3.9s0-3.9,0-3.9c0,0,0,0,.1,0,1-.1,2.2.2,3.3,0h4.3s0,4,0,4c-.2,2.6,0,5.4,0,8-.3,4.8-5,8.3-9.7,7s-5.4-3.5-5.6-6.6v-16.8c.3-5.4,5.9-8.7,10.9-6.5,2.3,1,4.2,3.6,4.4,6.1s0,.7,0,.9,0,.1,0,.1h-3.7s0-.6-.1-.7c-.5-2.2-2.8-3.7-5-2.9s-2.6,1.9-2.7,3.6c-.1,2.3,0,4.9,0,7.3,0,2.6-.2,5.3,0,7.8,0,1.1.3,1.9,1,2.7,2.4,2.8,6.6,1.1,6.8-2.4v-7.5Z"></path><path class="st0" d="M85.9,21.3h-3.8c0-.3,0-.7-.2-1-.8-2.6-4-3.5-6.1-1.9-1.4,1.1-1.6,2.4-1.5,4.1.2,4,5,3.9,7.6,5.4,2.3,1.3,3.8,3.8,4,6.5s0,5.3-1.9,7.4c-3.4,3.9-9.2,3.5-12.2-.7-.8-1.2-1.4-2.8-1.4-4.2h3.9c0,1.2,1,2.6,2.1,3.2,1.6.8,3.2.5,4.5-.6,1.5-1.3,1.3-2.9,1.2-4.7-.2-3.5-3.3-3.8-6-4.8-4-1.6-6-4.6-5.6-9,.4-5.2,5.4-8.5,10.4-6.8s5.1,4.1,5.1,7.2Z"></path><path class="st0" d="M32.6,44.4h-5.4c-.5,0-1.9-.6-2.4-.8-2.3-1.2-4-3.6-4.2-6.2-.1-7.6.2-15.3,0-22.9,0-.2-.1-.4.1-.4,1-.1,2.3,0,3.3,0s.3,0,.3,0,0,2.4,0,2.8c0,6.6,0,13.2,0,19.8,0,.9.1,1.6.7,2.4,1.3,1.7,3,1.6,4.9,1.6s1.6-.1,2.4,0,0,0,.1,0c.2.1,0,3.4,0,3.9Z"></path></g><rect class="st0" x="2.8" y="2.7" width="83.1" height="4.1"></rect><g><path class="st0" d="M5.5,55.4h-.3c0-.7-.3-1.1-.9-1.1s-.9.6-.9,1.7.3,1.7.9,1.7.8-.5.9-1.3h.3c0,.8-.3,1.5-1.2,1.5s-1.3-.7-1.3-1.9.4-1.9,1.3-1.9,1.1.6,1.2,1.3ZM4.4,53.6l.6-1h.2c0,0-.6,1.2-.6,1.2h-.3l-.6-1.1h.2c0,0,.6.9.6.9Z"></path><path class="st0" d="M9.2,57.8h-.3v-5.1h.3c0,0,0,5.1,0,5.1Z"></path><path class="st0" d="M15.1,55.9h-2.1c0,1.2.3,1.7.9,1.7s.8-.4.8-1.1h.3c-.1.8-.4,1.3-1.1,1.3s-1.3-.6-1.3-1.9.4-1.9,1.3-1.9,1.2.7,1.2,1.8ZM12.9,55.7h1.8c0-.8-.3-1.4-.8-1.4s-.9.4-.9,1.4Z"></path><path class="st0" d="M18.6,54.2v.5c.3-.3.7-.6,1.1-.6.7,0,1,.5,1,1.2v2.5h-.3v-2.5c0-.5-.1-.9-.7-.9s-.7.2-.9.5v3h-.3v-3.6h.2Z"></path><path class="st0" d="M30.5,55.3h-.3c0-.7-.3-1-.9-1s-.7.3-.7.7.2.6.9.8c.7.2,1.1.4,1.1,1.1s-.3,1-1.2,1-1.1-.6-1.2-1.4h.3c0,.7.4,1.1.9,1.1s.9-.3.9-.8-.3-.7-.9-.8c-.8-.2-1.1-.5-1.1-1s.3-1,1.1-1,1.1.5,1.2,1.2Z"></path><path class="st0" d="M35.9,57.8l-1.2-1.8-.4.4v1.4h-.3v-5.1h.3c0,0,0,3.4,0,3.4l1.5-2h.4l-1.2,1.6,1.4,2.1h-.4Z"></path><path class="st0" d="M39.7,54.2v2.5c0,.5.1.9.7.9s.6-.1.9-.5v-3h.3v3.6h-.2v-.5c-.3.3-.7.6-1.1.6-.7,0-1-.5-1-1.2v-2.5h.3Z"></path><path class="st0" d="M45.4,54.2v.5c.3-.3.6-.6,1.1-.6.8,0,1.2.7,1.2,1.9s-.4,1.9-1.2,1.9-.7-.3-1-.5v1.9h-.3v-5.1h.2ZM45.5,54.8v2.3c.2.3.5.5.9.5.6,0,.9-.5.9-1.6s-.3-1.6-.9-1.6-.7.2-.9.5Z"></path><path class="st0" d="M51.4,53.2v.3h-.3v-.3h.3ZM51.4,54.2v3.6h-.3v-3.6h.3Z"></path><path class="st0" d="M55.2,54.2v.5c.3-.3.7-.6,1.1-.6.7,0,1,.5,1,1.2v2.5h-.3v-2.5c0-.5-.1-.9-.7-.9s-.7.2-.9.5v3h-.3v-3.6h.2Z"></path><path class="st0" d="M60.8,54.2l.9,3.4.9-3.4h.3l-1.2,4.5c-.1.4-.5.7-.9.7v-.3c.4,0,.6-.2.7-.4l.2-.8h-.2l-1-3.6h.4Z"></path><path class="st0" d="M73.1,54.4h-.3c0-1.1-.5-1.5-1.2-1.5s-1.3.8-1.3,2.4.5,2.4,1.3,2.4.9-.2,1.1-.6v-1.6h-1.1v-.3h1.4v2.6h-.2v-.5c-.3.4-.8.6-1.3.6-1,0-1.6-.9-1.6-2.6s.7-2.6,1.6-2.6,1.4.7,1.5,1.8Z"></path><path class="st0" d="M79.7,54.4h-.3c0-1.1-.5-1.5-1.2-1.5s-1.3.8-1.3,2.4.5,2.4,1.3,2.4.9-.2,1.1-.6v-1.6h-1.1v-.3h1.4v2.6h-.2v-.5c-.3.4-.8.6-1.3.6-1,0-1.6-.9-1.6-2.6s.7-2.6,1.6-2.6,1.4.7,1.5,1.8Z"></path><path class="st0" d="M85.6,52.7v.3h-2.1v2h1.8v.3h-1.8v2.3h2.1v.3h-2.4v-5.1h2.4Z"></path></g></svg>