<svg xmlns="http://www.w3.org/2000/svg" id="Layer_1" viewBox="0 0 271.7 70.6"><defs><style>      .st0 {        fill: #fff;      }    </style></defs><path class="st0" d="M25.8,4.7c-10.1-.2-19.1,4.4-25,11.7C5.6,11.3,12.3,7.9,19.9,7.7c15.3-1,28.4,10.7,29.2,25.8,0,1.4,0,3-.2,4.8L.6,36.5l41.3-5.2c-2-9.9-11.1-17.1-21.5-16.7C8.7,15.2,0,24.6.6,35.9s10.5,19.9,22,19.3c7.4-.4,13.9-4.8,17.3-10.9l.2-.4,7.7.4c-3.8,9.9-13.5,17.5-24.8,17.7-9.7.2-17.1-3.2-23-9.7,5.4,7.5,14.3,13.1,24.8,13.3,17.1.4,31.2-13.1,31.6-29.8.2-16.7-13.5-30.8-30.6-31.2h0Z"></path><path class="st0" d="M76.3,20c0-2.2.8-4.2,2.2-6,1.8-2.2,4.2-3.4,7.4-3.4s4.6.8,6.7,2.6,3,4.2,3,7.1,0,1.2-.2,2h-14.3c.2,1,.8,1.8,1.8,2.6,1,.6,2,1,3.2,1s2.8-.6,4-1.6h4.8c-.6,1.8-1.8,3.2-3.2,4.2-1.6,1-3.2,1.6-5.4,1.6s-5-1-7.1-2.8-3-3.8-3-6.2v-1h0ZM86,14.8c-1.4,0-2.4.4-3.4,1.2-.8.6-1.4,1.4-1.6,2.4h10.1c-.4-.8-.8-1.6-1.6-2.4-1-.8-2.2-1.2-3.4-1.2h0Z"></path><path class="st0" d="M98.5,11.1h4v1.8c.8-.8,1.6-1.4,2.4-1.8s1.8-.6,2.8-.6c2,0,3.6.8,5,2.2,1.4,1.6,2.2,3.6,2.2,6v10.5h-4.4v-9.5c0-1.6-.4-2.8-1.2-3.8-.6-.8-1.4-1-2.4-1s-2,.4-2.6,1c-.8.8-1.2,1.6-1.2,2.8v10.5h-4.4l-.2-18.1h0Z"></path><path class="st0" d="M117.8,20c0-2.2.8-4.2,2.2-6,1.8-2.2,4.2-3.4,7.4-3.4s4.6.8,6.6,2.6,3,4.2,3,7.1,0,1.2-.2,2h-14.3c.2,1,.8,1.8,1.8,2.6,1,.6,2,1,3.2,1s2.8-.6,4-1.6h4.8c-.6,1.8-1.8,3.2-3.2,4.2-1.6,1-3.2,1.6-5.4,1.6s-5-1-7.1-2.8-3-3.8-3-6.2v-1h0ZM127.5,14.8c-1.4,0-2.4.4-3.4,1.2-.8.6-1.4,1.4-1.6,2.4h10.1c-.4-.8-.8-1.6-1.6-2.4-1-.8-2-1.2-3.4-1.2h0Z"></path><path class="st0" d="M140.2,29.3V11.1h4v1.6c1-1.6,2.4-2.2,4.4-2.2v4.2c-1.6.2-2.4.4-3,1-.6.6-1,1.8-1,3.6v9.9h-4.4Z"></path><path class="st0" d="M150.1,19.8c0-2.8,1-5.2,3-6.9,1.8-1.6,3.8-2.2,6.2-2.2s2.6.2,3.6.8,1.8,1.2,2.4,2.2v-2.6h4v15.7c0,3-1,5.4-3,7.2-1.8,1.6-4.2,2.4-6.9,2.4s-3.8-.4-5.4-1.4c-1.8-1-3-2.6-3.6-4.4h5c.4.4,1,.8,1.8,1.2.8.4,1.6.4,2.4.4,1.6,0,2.8-.4,4-1.2,1.2-1,1.8-2.4,1.8-4.2-.8,1-1.6,1.8-2.6,2.4s-2.2.8-3.2.8c-2.4,0-4.4-1-6.4-2.8-2.2-2-3.2-4.4-3.2-7.5h0ZM159.7,25.6c1.6,0,3-.6,4-1.6s1.4-2.2,1.4-3.8-.6-2.8-1.6-3.8-2.4-1.6-3.8-1.6-3,.6-4,1.6c-1,1-1.4,2.4-1.4,3.8s.4,2.6,1.4,3.8c1.2,1,2.6,1.6,4,1.6Z"></path><path class="st0" d="M172,20c0-2.2.8-4.2,2.2-6,1.8-2.2,4.2-3.4,7.4-3.4s4.6.8,6.6,2.6,3,4.2,3,7.1,0,1.2-.2,2h-14.3c.2,1,.8,1.8,1.8,2.6,1,.6,2,1,3.2,1s2.8-.6,4-1.6h4.8c-.6,1.8-1.8,3.2-3.2,4.2-1.6,1-3.2,1.6-5.4,1.6s-5-1-7.1-2.8-3-3.8-3-6.2v-1h0ZM181.7,14.8c-1.4,0-2.4.4-3.4,1.2-.8.6-1.4,1.4-1.6,2.4h10.1c-.4-.8-.8-1.6-1.6-2.4-.8-.8-2-1.2-3.4-1.2h0Z"></path><path class="st0" d="M195,11.1v-6h4.4v6h2.8v3.8h-2.8v14.3h-4.4v-14.3h-2.2v-3.8s2.2,0,2.2,0Z"></path><path class="st0" d="M204.4,5.1h4.4v4h-4.4v-4ZM204.4,11.1h4.4v18.1h-4.4V11.1Z"></path><path class="st0" d="M221.6,10.5c2.4,0,4.4.8,6.2,2.2,1.6,1.2,2.4,2.8,3,4.4h-5c-.6-1-1.2-1.6-2.2-2-.6-.2-1.4-.4-2.4-.4-1.6,0-2.8.6-3.6,1.6-.8,1.2-1.4,2.4-1.4,4,.2,1.6.8,2.8,1.8,3.6,1,.8,2.2,1.4,3.6,1.4s3-.8,4-2.2h5c-.6,1.8-1.6,3.4-3.4,4.6s-3.4,1.8-5.4,1.8c-3.2,0-5.6-1-7.9-3-1.8-1.8-2.6-3.8-2.6-5.8,0-3.2,1-5.6,3-7.6,2.2-1.8,4.6-2.6,7.2-2.6h0Z"></path><path class="st0" d="M238.3,5.1v14.7l5.8-8.7h5.2l-6.6,8.9,7.9,9.3h-6l-6.2-8.5v8.5h-4.4V5.1h4.4,0Z"></path><path class="st0" d="M252.4,20c0-2.2.8-4.2,2.2-6,1.8-2.2,4.2-3.4,7.4-3.4s4.6.8,6.6,2.6,3,4.2,3,7.1,0,1.2-.2,2h-14.3c.2,1,.8,1.8,1.8,2.6,1,.6,2,1,3.2,1s2.8-.6,4-1.6h4.8c-.6,1.8-1.8,3.2-3.2,4.2-1.6,1-3.2,1.6-5.4,1.6s-5-1-7.1-2.8-3-3.8-3-6.2v-1h0ZM262.1,14.8c-1.4,0-2.4.4-3.4,1.2-.8.6-1.4,1.4-1.6,2.4h10.1c-.4-.8-.8-1.6-1.6-2.4-.8-.8-2-1.2-3.4-1.2h0ZM259.8,6.7l6.5-3.6,1.4,3-6.5,3.4-1.4-2.8h0Z"></path><path class="st0" d="M76.9,46.6c.4-1.2,1.2-2.2,2.4-3,1-.6,2.2-1,3.4-1s3,.6,4.2,1.6,1.8,2.4,1.8,4h-4.2c-.2-.4-.4-.8-.8-1s-.6-.4-1.2-.4-.8.2-1.2.4-.6.6-.6,1,.2.6.4.8c.2.2.6.4,1,.6,1.2.4,2.4.8,3.8,1.2,2,.8,3,2.2,3.2,4,0,2-.6,3.4-1.6,4.8-1.2,1.4-3,2.2-5,2.2s-1.2,0-2-.2c-1.4-.2-2.4-.8-3.2-2-1-1.2-1.4-2.4-1.4-4h4.4c.2.6.4,1.2.8,1.6.4.4,1,.6,1.4.6.6,0,1.2-.2,1.6-.6.4-.4.6-.8.6-1.4s-.6-1.2-1.8-1.6-2.4-1-3.4-1.4-1.8-1.2-2.4-2c-.4-.8-.8-1.6-.8-2.6s0-.6.2-.8c.2-.2.2-.4.4-.8h0Z"></path><path class="st0" d="M91.8,37.3h4.4v24.2h-4.4v-24.2Z"></path><path class="st0" d="M99.9,54.2v-10.9h4.4v10.1c0,1.4.4,2.4,1.2,3.4.8.8,1.6,1.2,2.6,1.2s2-.4,2.6-1.2c.8-.8,1.2-2,1.2-3.6v-9.9h4.4v18.1h-4v-2c-.4.8-1,1.4-2,1.8-1,.4-2,.8-3.2.8-2,0-3.6-.6-4.8-1.8-1.6-1.4-2.4-3.4-2.4-6h0Z"></path><path class="st0" d="M127.1,47.2h-7.2v-3.8h12.7v3.8l-8.3,10.5h8.7v3.8h-14.1v-3.8s8.3-10.5,8.3-10.5ZM124.5,36.9l1.8,2.2,1.8-2.2h4.8l-4.8,4.4h-3.4l-5-4.6h4.8v.2h0Z"></path><path class="st0" d="M152.5,45.8c.8.8,1.4,2,1.8,3,.4,1.2.6,2.4.6,3.8,0,2.6-.8,4.8-2.6,6.7s-4,2.8-6.6,2.8-2.4-.2-3.6-.8c-1-.6-2-1.2-2.6-2.4v2.6h-4v-24.2h4.4v8.1c.8-.8,1.6-1.4,2.6-2,1-.4,2-.6,3-.6s2.6.2,3.8.8c1.2.4,2.2,1.2,3.2,2.2h0ZM141,56.1c.6.6,1.2,1,2,1.4s1.4.4,2.2.4c1.6,0,2.8-.6,3.8-1.6s1.6-2.4,1.6-4-.6-2.6-1.6-3.8c-1-1-2.4-1.6-3.8-1.6s-2.8.6-4,1.6c-1,1-1.6,2.4-1.6,3.8-.2,1.6.4,2.8,1.4,3.8Z"></path><path class="st0" d="M162.8,59.9l-6.9-16.5h5l4.2,11.7,4.4-11.7h5l-10.7,24.2h-4.8l3.6-7.7h0Z"></path></svg>