<svg xmlns="http://www.w3.org/2000/svg" id="Layer_1" data-name="Layer 1" viewBox="0 0 102.69 78.01"><defs><style>      .cls-1 {        fill: #fff;      }    </style></defs><path class="cls-1" d="M49.03,15.16c-1.25-3.4-4.52-4.93-7.64-3.74-3.12,1.36-4.52,4.93-3.43,8.32,1.25,3.4,4.68,4.93,7.64,3.74,3.12-1.19,4.68-4.93,3.43-8.32ZM55.11,7.51c-2.5,1.02-3.74,4.08-2.81,6.79.94,2.72,3.74,4.08,6.24,3.06,2.5-1.02,3.74-4.08,2.81-6.79-.94-2.72-3.74-4.08-6.24-3.06ZM67.75,3.61c-2.34,1.02-3.43,3.74-2.5,6.29.78,2.55,3.43,3.74,5.62,2.89,2.34-1.02,3.43-3.74,2.5-6.29-.78-2.55-3.28-3.74-5.62-2.89ZM78.98,1.06c-2.03.85-3.12,3.4-2.34,5.78.78,2.21,3.12,3.4,5.3,2.55,2.03-.85,3.12-3.4,2.34-5.78-.78-2.21-3.12-3.4-5.3-2.55ZM92.08,7.85c1.87-.85,2.81-3.06,2.18-5.27-.78-2.04-2.81-3.06-4.84-2.38-1.87.85-2.81,3.06-2.18,5.27.78,2.21,2.96,3.23,4.84,2.38ZM100.35,11.25c1.72-.68,2.65-2.89,1.87-4.76-.62-1.87-2.65-2.89-4.37-2.04-1.72.68-2.65,2.89-1.87,4.76.62,1.87,2.65,2.72,4.37,2.04ZM97.39,14.31c-1.56.68-2.34,2.55-1.72,4.25.62,1.7,2.34,2.55,3.9,1.87s2.34-2.55,1.72-4.25c-.62-1.7-2.34-2.55-3.9-1.87ZM92.24,21.27c-1.4.51-2.03,2.21-1.56,3.57.47,1.53,2.03,2.21,3.28,1.7,1.4-.51,2.03-2.21,1.56-3.57-.47-1.53-1.87-2.21-3.28-1.7ZM86.16,26.54c-1.09.51-1.72,1.87-1.25,3.06.47,1.19,1.72,1.87,2.81,1.36,1.09-.51,1.72-1.87,1.25-3.06-.47-1.36-1.72-1.87-2.81-1.36ZM80.54,30.62c-.94.34-1.4,1.53-1.09,2.55s1.4,1.53,2.34,1.19c.94-.34,1.4-1.53,1.09-2.55-.31-1.02-1.4-1.53-2.34-1.19ZM75.7,34.01c-.78.34-1.09,1.19-.78,2.04.31.85,1.09,1.19,1.87.85.78-.34,1.09-1.19.78-2.04s-1.09-1.19-1.87-.85ZM71.34,36.9c-.62.17-.94,1.02-.62,1.53.16.68.94,1.02,1.4.68.62-.17.94-1.02.62-1.53-.16-.68-.78-1.02-1.4-.68ZM67.75,39.28c-.31.17-.62.68-.47,1.02.16.34.62.68.94.51s.62-.68.47-1.02c-.16-.51-.62-.68-.94-.51ZM34.99,21.44c-.94-2.72-3.74-4.08-6.24-3.06-2.5,1.02-3.74,4.08-2.81,6.79.94,2.72,3.74,4.08,6.24,3.06s3.74-4.08,2.81-6.79ZM18.14,25.18c-1.87.85-2.81,3.06-2.18,5.27.78,2.04,2.81,3.06,4.84,2.38,1.87-.85,2.81-3.06,2.18-5.27-.78-2.04-2.96-3.06-4.84-2.38ZM9.71,31.64c-1.4.51-2.03,2.21-1.56,3.57.47,1.53,2.03,2.21,3.28,1.7,1.4-.51,2.03-2.21,1.56-3.57-.47-1.53-1.87-2.38-3.28-1.7ZM4.41,36.73c-.78.34-1.09,1.19-.78,2.04.31.85,1.09,1.19,1.87.85.78-.34,1.09-1.19.78-2.04-.16-.68-1.09-1.19-1.87-.85ZM.51,41.49c-.31.17-.62.68-.47,1.02.16.34.62.68.94.51.31-.17.62-.68.47-1.02-.16-.51-.47-.68-.94-.51ZM27.03,44.21c-1.56.68-2.34,2.55-1.72,4.25.62,1.7,2.34,2.55,3.9,1.87s2.34-2.55,1.72-4.25c-.78-1.7-2.5-2.38-3.9-1.87ZM34.83,45.23c-1.4.51-2.03,2.21-1.56,3.57.47,1.53,2.03,2.21,3.28,1.7,1.4-.51,2.03-2.21,1.56-3.57-.47-1.53-1.87-2.38-3.28-1.7ZM42.63,44.55c-1.09.51-1.72,1.87-1.25,3.06s1.72,1.87,2.81,1.36c1.09-.51,1.72-1.87,1.25-3.06-.31-1.19-1.72-1.7-2.81-1.36ZM49.34,43.7c-.94.34-1.4,1.53-1.09,2.55.31,1.02,1.4,1.53,2.34,1.19.94-.34,1.4-1.53,1.09-2.55-.31-1.19-1.4-1.7-2.34-1.19ZM54.96,42.68c-.78.34-1.09,1.19-.78,2.04s1.09,1.19,1.87.85c.78-.34,1.09-1.19.78-2.04-.16-.85-1.09-1.19-1.87-.85ZM59.95,41.66c-.62.17-.94,1.02-.62,1.53.16.68.94,1.02,1.4.68.62-.17.94-1.02.62-1.53-.16-.68-.78-1.02-1.4-.68ZM64.16,40.64c-.31.17-.62.68-.47,1.02.16.34.62.68.94.51.31-.17.62-.68.47-1.02-.16-.34-.62-.51-.94-.51Z"></path><path class="cls-1" d="M47.47,62.55c-.47-.51-.94-.85-1.56-1.19-.62-.34-1.25-.34-1.87-.51-.47,0-.94,0-1.25.17-.31.17-.78.34-.94.34-.31.17-.47.34-.78.51-.16.17-.31.34-.31.34l-3.12,3.4c-.16.51-.47.68-.78.68s-.47-.17-.62-.34l-3.12-3.4s-.16-.17-.31-.34c-.16-.17-.47-.34-.78-.51-.31-.17-.62-.34-.94-.34-.31-.17-.78-.17-1.25-.17-.62,0-1.25.17-1.87.51s-1.09.68-1.56,1.19c-.47.51-.78,1.02-1.09,1.7-.16.34-.31,1.02-.31,1.7v9.85c0,.51.16.85.47,1.19.31.34.62.51,1.09.51h.16c.47,0,.78-.17,1.09-.51.31-.34.47-.68.47-1.19v-9.85c0-.17,0-.34.16-.34,0-.17.16-.34.31-.34q.16-.17.31-.34c.16-.17.31-.17.47-.17.31,0,.47,0,.62.17.16.17,2.5,2.72,3.28,3.4.47.51.94,1.02,1.56,1.19.62.34,1.25.34,1.72.34.62,0,1.25-.17,1.87-.34.62-.34,1.09-.68,1.56-1.19l3.12-3.4c.16-.17.31-.17.62-.17.16,0,.31,0,.47.17.16.17.31.17.31.34.16.17.16.34.16.34,0,.17.16.34.16.34v9.85c0,.51.31.85.62,1.19.31.34.78.51,1.09.51h.16c.47,0,.94-.17,1.25-.51.31-.34.47-.68.47-1.19v-9.85c0-.68-.16-1.36-.31-2.04,0-.68-.47-1.19-.78-1.7ZM102.23,61.7c-.31-.34-.78-.51-1.25-.51h-20.28c-.31,0-.47,0-.62.17-.16.17-.47.17-.62.34s-.31.34-.47.68c-.16.17-.16.51-.16.68s0,.51.16.68c.16.17.31.51.47.68s.31.34.62.51c.16.17.47.17.62.17h8.27v10.87c0,.34,0,.51.16.68s.16.51.31.68c.16.17.31.34.62.51.16.17.47.17.62.17.31,0,.47,0,.78-.17.16-.17.47-.34.62-.51s.31-.34.31-.68c.16-.17.16-.51.16-.68v-10.87h8.27c.16,0,.47,0,.62-.17s.47-.34.62-.51c.16-.17.31-.34.47-.68.16-.17.16-.51.16-.68,0-.51-.16-1.02-.47-1.36ZM56.2,65.44c.16-.17.31-.17.47-.34.16,0,.31-.17.47-.17h14.98c.16,0,.31,0,.47.17.31.34.78.51,1.25.51,1.09,0,2.03-1.02,2.03-2.21s-.94-2.21-2.03-2.21h-19.66c-.47,0-.94.17-1.25.51-.16.17-.31.51-.47.85v.17s0,0,0,.17v13.08c0,.34,0,.51.16.68.16.17.16.51.31.68.16.17.31.34.62.51.16.17.47.17.62.17h20.12c.31,0,.47,0,.62-.17.16-.17.47-.17.62-.34s.31-.34.47-.68c.16-.17.16-.51.16-.68,0-.34,0-.51-.16-.68s-.16-.51-.47-.68c-.16-.17-.31-.34-.62-.51-.16-.17-.47-.17-.62-.17h-17.16c-.16,0-.31,0-.47-.17-.16,0-.31-.17-.47-.34-.16-.17-.16-.34-.31-.51,0-.17-.16-.34-.16-.51v-1.36h13.88c.16,0,.47,0,.62-.17.16-.17.31-.17.47-.34.16-.17.31-.34.31-.51.16-.17.16-.34.16-.68,0-.51-.16-.85-.47-1.19s-.62-.51-1.09-.51h-12.64c-.16,0-.31,0-.47-.17-.16,0-.31-.17-.47-.34-.16-.17-.16-.34-.31-.51,0-.17-.16-.34-.16-.51s0-.34.16-.51c.31-.17.47-.34.47-.34Z"></path></svg>