<svg xmlns="http://www.w3.org/2000/svg" viewBox="0 0 566.93 141.73"><defs><style>.cls-1{fill:#fff;}</style></defs><g id="mark"><path class="cls-1" d="M130.32,44.5a6.85,6.85,0,0,0-12.55,0L103.51,77.29,89.25,44.5a6.85,6.85,0,0,0-12.56,0L56.16,91.73a6.84,6.84,0,1,0,12.55,5.46L83,64.4,97.23,97.19a6.84,6.84,0,0,0,12.55,0L124,64.4,138.3,97.19a6.85,6.85,0,1,0,12.56-5.46Z"></path><path class="cls-1" d="M208.92,41a6.85,6.85,0,0,0-9,3.55L185.65,77.29,171.39,44.5A6.84,6.84,0,1,0,158.84,50l20.54,47.23a6.84,6.84,0,0,0,12.55,0L212.47,50A6.85,6.85,0,0,0,208.92,41Z"></path><path class="cls-1" d="M315.15,91.73,294.61,44.5a6.85,6.85,0,0,0-12.55,0L267.8,77.29,253.54,44.5a6.85,6.85,0,0,0-12.55,0L220.45,91.73A6.84,6.84,0,1,0,233,97.19L247.26,64.4l14.26,32.79a6.85,6.85,0,0,0,12.56,0L288.34,64.4l14.25,32.79a6.85,6.85,0,1,0,12.56-5.46Z"></path><path class="cls-1" d="M367.22,43.42c0,1-.53,1.92-1.68,1.88a3.37,3.37,0,0,1-1.54-.45,9.63,9.63,0,0,0-3.91-.84c-3.73,0-7.29,3.56-7.33,8.83,0,4.68,3.39,8.21,7.47,8.21a8.28,8.28,0,0,0,4.26-1.15,2.94,2.94,0,0,1,1.54-.56c1,0,1.54,1.08,1.54,2,0,1.71-4,3.39-7.72,3.35-5.59-.07-11-4.36-11-11.73.07-7.78,5.86-12.53,11.48-12.5a15.25,15.25,0,0,1,5.1,1C366.41,41.88,367.22,42.4,367.22,43.42Z"></path><path class="cls-1" d="M374.25,40.69c.39,0,1,0,1.54,0,4.36,0,6.91-.07,8.62-.07,1.33,0,1.89.66,1.89,1.57A1.53,1.53,0,0,1,385.22,44c-1.54.07-5.2,0-8.07,0h-1.53v3.35l0,3.28v.46H377c1,0,4.33-.07,5.65-.11s2.17.21,2.13,1.68c0,.94-.42,1.64-1.81,1.64l-7.44,0c0,.7,0,1.51,0,2.24,0,1.43,0,3,0,4.43,1.68,0,4.4,0,8,0,.7,0,1.15-.07,1.71-.07,1.08,0,1.54.66,1.54,1.71s-.35,1.81-2,1.85c-2.34.07-5.2,0-9.39,0-2.86,0-3.59-.28-3.7-2.2V61c0-.18.14-4.47.14-10,0-2.83,0-5.62,0-8.49C371.85,41.15,372.82,40.69,374.25,40.69Z"></path><path class="cls-1" d="M393.52,40.69c.38,0,1,0,1.53,0,4.37,0,6.91-.07,8.63-.07,1.32,0,1.88.66,1.88,1.57A1.52,1.52,0,0,1,404.48,44c-1.54.07-5.2,0-8.07,0h-1.53v3.35l0,3.28v.46h1.4c1.05,0,4.33-.07,5.66-.11s2.16.21,2.12,1.68c0,.94-.41,1.64-1.81,1.64l-7.44,0c0,.7,0,1.51,0,2.24,0,1.43,0,3,0,4.43,1.68,0,4.4,0,8,0,.7,0,1.15-.07,1.71-.07,1.09,0,1.54.66,1.54,1.71s-.35,1.81-2,1.85c-2.33.07-5.2,0-9.39,0-2.86,0-3.59-.28-3.7-2.2V61c0-.18.14-4.47.14-10,0-2.83,0-5.62,0-8.49C391.11,41.15,392.08,40.69,393.52,40.69Z"></path><path class="cls-1" d="M409.75,50.5c0-1.43.46-2.23,2-2.23,1.19,0,1.6.56,1.71,1.71l.07,1.22a5.6,5.6,0,0,1,5.2-3c3.88,0,6,2.55,6,6.88,0,1.43,0,2.17,0,4.51v3c0,1.39-.74,2-2.06,2a1.61,1.61,0,0,1-1.82-1.67c0-2,.11-4.51.11-6.71,0-2.37-.53-4.6-3.18-4.6-3.63,0-4.23,2.68-4.23,5.93l0,5.48c0,1.26-1.05,1.64-1.92,1.64-1.08,0-1.92-.38-1.92-1.67,0-2.1.1-4.19.07-9.32Z"></path><path class="cls-1" d="M436.74,61.26a6.68,6.68,0,0,0,3.38-.95,2.69,2.69,0,0,1,1.36-.45,1.8,1.8,0,0,1,1.61,1.82,2,2,0,0,1-1,1.6,9.7,9.7,0,0,1-5.62,1.4A7.8,7.8,0,0,1,428.6,57c0-4.89,3.49-8.84,8-8.84,4.09,0,7.05,3.22,7.05,6.43,0,1.81-.27,2.72-2.72,2.76-1.95.07-4.33,0-8.48.07A4.16,4.16,0,0,0,436.74,61.26ZM432.51,55c1.82,0,5.66,0,7.12-.14.25,0,.42-.14.42-.31a3.28,3.28,0,0,0-3.35-3.25A4.24,4.24,0,0,0,432.51,55Z"></path><path class="cls-1" d="M449.8,48.3a1.36,1.36,0,0,1,1.46,1.26l.14,1.92a5.44,5.44,0,0,1,4.75-3.32c1.22,0,1.85.53,1.85,1.82a1.61,1.61,0,0,1-1.57,1.82h-.59c-2.31,0-4.23,2-4.23,5.51,0,1.75.07,3.67,0,5.62,0,1.15-.84,1.61-2,1.61s-1.88-.49-1.85-2.13c0-2.69.11-6.11.11-8.59,0-1.19,0-2.48,0-3.7S448.61,48.3,449.8,48.3Z"></path><path class="cls-1" d="M472.21,64.22V62.16a5.79,5.79,0,0,1-4.86,2.48,7.65,7.65,0,0,1-7.61-7.89c0-4.85,3.39-8.55,8-8.55a5.73,5.73,0,0,1,4.68,2.44l0-1.08c.1-.73.8-1.22,1.78-1.22A1.66,1.66,0,0,1,476,50c0,3.94-.07,6.73-.07,10.89l.07,3.42c.07,4.78-3.6,8.24-8.45,8.24a10.82,10.82,0,0,1-4.92-1,1.94,1.94,0,0,1-1.33-1.85A1.84,1.84,0,0,1,463,67.86a4.57,4.57,0,0,1,1.57.52,8.91,8.91,0,0,0,3,.56A4.62,4.62,0,0,0,472.21,64.22Zm-4.33-3a4.4,4.4,0,0,0,4.43-4.78c0-3.35-2-4.89-4.26-4.92-2.55,0-4.47,2.06-4.47,5.13A4.3,4.3,0,0,0,467.88,61.22Z"></path><path class="cls-1" d="M491.44,49.81c.35-.88.77-1.51,1.71-1.51s2.1.67,2.1,1.58a3.1,3.1,0,0,1-.39,1.46c-2.27,5.2-5.31,11.91-7.89,17.11-1.36,2.48-3.07,3.8-5.2,3.8-1.57,0-2.72-.45-2.72-1.88a1.61,1.61,0,0,1,1.85-1.78c1.46,0,2-.46,2.93-2.1.49-.83.94-1.78,1.57-3l-1.08-2.27L480,51.76a4.64,4.64,0,0,1-.59-1.88c0-1,1.12-1.65,2-1.65a1.43,1.43,0,0,1,1.5,1c2.65,6.39,3.45,8.45,4.47,10.75C488.05,58.43,489.31,55.29,491.44,49.81Z"></path><path class="cls-1" d="M364.84,80.38a1.84,1.84,0,0,1-1.67,1.78,5.49,5.49,0,0,1-1.68-.45,9.23,9.23,0,0,0-3.91-.84c-2.37,0-4.36,1.5-4.36,3.53S355.49,87,358,87.54c4.22.91,7.61,2.34,7.61,6.74s-3.56,7.33-8.49,7.37a16,16,0,0,1-6.63-1.4A2.09,2.09,0,0,1,349,98.33a1.87,1.87,0,0,1,1.71-2,4.42,4.42,0,0,1,1.57.39A10.44,10.44,0,0,0,357.06,98c2.62,0,4.61-1.36,4.61-3.59s-2.27-3-4.86-3.56c-3.94-.81-7.5-2.2-7.5-6.22,0-4.19,4-7.26,8.38-7.26a14.11,14.11,0,0,1,6,1.26A1.82,1.82,0,0,1,364.84,80.38Z"></path><path class="cls-1" d="M372.05,76.16c1.4,0,2,.7,2,2.16-.11,5.62-.18,11.77-.18,17.08,0,1.53.11,3,.14,4.43,0,1.12-.49,1.64-1.78,1.74s-2.13-.59-2.16-2.68c-.18-4.51,0-15,0-20.88A1.82,1.82,0,0,1,372.05,76.16Z"></path><path class="cls-1" d="M387.91,85.31c4.47.66,6.46,4.47,6.46,8.1a8.15,8.15,0,0,1-8.49,8.27A7.73,7.73,0,0,1,378,93.89c0-5.2,3.39-8.72,8.9-8.79A2,2,0,0,1,387.91,85.31Zm-1.75,3.14c-2.65.14-4.4,2.13-4.4,5.44a4.29,4.29,0,0,0,4.05,4.44,4.81,4.81,0,0,0,4.75-5.06A4.52,4.52,0,0,0,386.16,88.45Z"></path><path class="cls-1" d="M396.52,86.84a1.93,1.93,0,0,1,2.06-1.64c1.05,0,1.47.66,1.89,1.78,1.22,3,2.79,7.09,4,10.06,1.33-3.08,3.18-7.75,4.09-10.27.35-.91.9-1.5,1.78-1.5s2,.59,2.06,1.5a3.7,3.7,0,0,1-.39,1.64c-.87,1.85-3.07,6.92-5.13,11.31-.63,1.3-1.29,1.82-2.48,1.82s-1.85-.66-2.51-2.1c-2-4.6-3.28-7.43-4.75-10.64A4.48,4.48,0,0,1,396.52,86.84Z"></path><path class="cls-1" d="M430.79,95.43c0,1.5,0,3,.14,4.47,0,1.26-1,1.61-2,1.61s-1.47-.88-1.71-2.69a5.65,5.65,0,0,1-5.14,2.79,7.39,7.39,0,0,1-7.57-7.75c0-5.1,3.49-8.62,8-8.62a5.6,5.6,0,0,1,4.75,2.44c.07-.42.14-1,.21-1.29A1.52,1.52,0,0,1,429,85.31c1.4,0,1.82.8,1.82,2.13l0,2.68Zm-8.21,2.9a4.58,4.58,0,0,0,4.58-4.92c0-3.18-2.13-4.89-4.4-4.89-2.52,0-4.37,2.13-4.37,5.23A4.3,4.3,0,0,0,422.58,98.33Z"></path><path class="cls-1" d="M449,98.57a1.73,1.73,0,0,1,.49,1.12,2.1,2.1,0,0,1-2,1.85,2.2,2.2,0,0,1-1.64-1.08L441.1,94.7c-.35.31-1.19,1.11-1.5,1.43l0,3.42c0,1.22-.45,2-1.85,2s-1.92-.73-1.88-2.06l.07-3.84c0-5.24,0-10,0-15.33,0-.62,0-1.88,0-2.62a1.76,1.76,0,0,1,1.95-1.78,1.68,1.68,0,0,1,1.92,1.89c0,4.64-.07,9.6-.1,14.24l5.86-6a2.39,2.39,0,0,1,1.68-.94A2.08,2.08,0,0,1,449,87a2.06,2.06,0,0,1-.7,1.32c-1.32,1.33-3.42,3.25-4.64,4.4Z"></path><path class="cls-1" d="M452.51,78.46A2.44,2.44,0,0,1,455,76.4a2.22,2.22,0,0,1,2.37,2.38c0,1.6-1.19,2.3-2.65,2.3A2.21,2.21,0,0,1,452.51,78.46Zm2.31,6.78c1.15,0,2,.41,2,2.13,0,2.61,0,5.3,0,7.92v4.36c0,1.3-.7,1.89-2,1.89-1.08,0-1.88-.52-1.88-1.64V87A1.73,1.73,0,0,1,454.82,85.24Z"></path><path class="cls-1" d="M477.18,95.43c0,1.5,0,3,.14,4.47,0,1.26-1,1.61-2,1.61s-1.46-.88-1.71-2.69a5.64,5.64,0,0,1-5.13,2.79,7.4,7.4,0,0,1-7.58-7.75c0-5.1,3.49-8.62,8-8.62a5.58,5.58,0,0,1,4.75,2.44c.07-.42.14-1,.21-1.29a1.53,1.53,0,0,1,1.54-1.08c1.39,0,1.81.8,1.81,2.13l0,2.68Zm-8.2,2.9a4.58,4.58,0,0,0,4.57-4.92c0-3.18-2.13-4.89-4.4-4.89-2.51,0-4.36,2.13-4.36,5.23A4.3,4.3,0,0,0,469,98.33Z"></path></g></svg>